<svg width="152" height="181" viewBox="0 0 152 181" fill="none" xmlns="http://www.w3.org/2000/svg">
<g filter="url(#filter0_d_860_1759)">
<rect x="32" y="29" width="100" height="128" rx="50" fill="#059669" shape-rendering="optimizeQuality"/>
<path d="M90.0004 65.5607C90.0002 66.7641 89.5243 67.9187 88.6764 68.7727C86.7244 70.7407 84.8304 72.7927 82.8044 74.6887C82.5782 74.8948 82.2815 75.0061 81.9756 74.9998C81.6697 74.9935 81.3779 74.8699 81.1604 74.6547L75.3244 68.7747C74.4761 67.9201 74 66.7648 74 65.5607C74 64.3566 74.4761 63.2013 75.3244 62.3467C75.7477 61.9203 76.2512 61.5818 76.8059 61.3509C77.3606 61.1199 77.9555 61.001 78.5564 61.001C79.1573 61.001 79.7522 61.1199 80.3069 61.3509C80.8616 61.5818 81.3651 61.9203 81.7884 62.3467L82.0004 62.5607L82.2124 62.3467C82.8478 61.7044 83.6599 61.2658 84.5455 61.0866C85.431 60.9073 86.3498 60.9957 87.1849 61.3403C88.02 61.685 88.7337 62.2703 89.2351 63.0219C89.7365 63.7735 90.0029 64.6572 90.0004 65.5607V65.5607Z" stroke="#F9FAFB" stroke-width="2" stroke-linejoin="round"/>
<path d="M94 93L101.648 85.352C101.873 85.1272 102 84.8222 102 84.504V74C102 73.2044 101.684 72.4413 101.121 71.8787C100.559 71.3161 99.7956 71 99 71V71C98.2044 71 97.4413 71.3161 96.8787 71.8787C96.3161 72.4413 96 73.2044 96 74V83" stroke="#F9FAFB" stroke-width="2" stroke-linecap="round" stroke-linejoin="round"/>
<path d="M94 85L95.716 83.284C95.8062 83.194 95.8776 83.087 95.9264 82.9693C95.9751 82.8516 96.0001 82.7254 96 82.598C95.9997 82.4182 95.9494 82.2419 95.8548 82.089C95.7601 81.9361 95.6248 81.8125 95.464 81.732L94.578 81.29C93.8274 80.9147 92.9777 80.785 92.1493 80.9192C91.3209 81.0535 90.5557 81.4449 89.962 82.038L88.172 83.828C87.4218 84.578 87.0002 85.5952 87 86.656V93M70 93L62.352 85.352C62.1269 85.1272 62.0003 84.8222 62 84.504V74C62 73.2044 62.3161 72.4413 62.8787 71.8787C63.4413 71.3161 64.2044 71 65 71V71C65.7956 71 66.5587 71.3161 67.1213 71.8787C67.6839 72.4413 68 73.2044 68 74V83" stroke="#F9FAFB" stroke-width="2" stroke-linecap="round" stroke-linejoin="round"/>
<path d="M70 85.0014L68.284 83.2854C68.1939 83.1953 68.1225 83.0884 68.0738 82.9707C68.025 82.853 68 82.7268 68 82.5994V82.5994C68 82.2334 68.208 81.8994 68.536 81.7334L69.422 81.2914C70.1726 80.9161 71.0223 80.7864 71.8507 80.9206C72.6791 81.0549 73.4443 81.4463 74.038 82.0394L75.828 83.8294C76.5782 84.5794 76.9998 85.5967 77 86.6574V93.0014" stroke="#F9FAFB" stroke-width="2" stroke-linecap="round" stroke-linejoin="round"/>
<path d="M57.5302 110.878V111.816H67.7082V110.878H57.5302ZM56.9422 117.64V118.592H68.4082V117.64H56.9422ZM62.0662 118.41V122.106H63.2282V118.41H62.0662ZM62.6542 112.544C60.0642 112.544 58.5382 113.3 58.5382 114.658C58.5382 116.002 60.0642 116.772 62.6542 116.772C65.2302 116.772 66.7562 116.002 66.7562 114.658C66.7562 113.3 65.2302 112.544 62.6542 112.544ZM62.6542 113.44C64.5022 113.44 65.5662 113.874 65.5662 114.658C65.5662 115.442 64.5022 115.876 62.6542 115.876C60.8062 115.876 59.7422 115.442 59.7422 114.658C59.7422 113.874 60.8062 113.44 62.6542 113.44ZM62.0662 109.366V111.508H63.2282V109.366H62.0662ZM73.4051 115.806V118.62H74.5671V115.806H73.4051ZM79.0191 109.436V119.068H80.1811V109.436H79.0191ZM71.5431 120.86V121.812H80.4891V120.86H71.5431ZM71.5431 118.13V121.126H72.7051V118.13H71.5431ZM69.9051 116.24C72.2011 116.24 75.2671 116.198 77.9971 115.764L77.9131 114.91C75.2251 115.26 72.0891 115.288 69.7511 115.288L69.9051 116.24ZM76.4431 116.912V117.766H79.3131V116.912H76.4431ZM73.8671 109.954C72.0051 109.954 70.7451 110.822 70.7451 112.152C70.7451 113.496 72.0051 114.364 73.8671 114.364C75.7151 114.364 76.9751 113.496 76.9751 112.152C76.9751 110.822 75.7151 109.954 73.8671 109.954ZM73.8671 110.822C75.0431 110.822 75.8691 111.34 75.8691 112.152C75.8691 112.964 75.0431 113.482 73.8671 113.482C72.6771 113.482 71.8511 112.964 71.8511 112.152C71.8511 111.34 72.6771 110.822 73.8671 110.822ZM91.268 109.436V122.092H92.43V109.436H91.268ZM92.15 114.63V115.61H94.502V114.63H92.15ZM82.63 111.452V112.404H90.092V111.452H82.63ZM86.41 113.454C84.632 113.454 83.33 114.658 83.33 116.366C83.33 118.074 84.632 119.278 86.41 119.278C88.202 119.278 89.49 118.074 89.49 116.366C89.49 114.658 88.202 113.454 86.41 113.454ZM86.41 114.42C87.558 114.42 88.384 115.218 88.384 116.366C88.384 117.5 87.558 118.312 86.41 118.312C85.262 118.312 84.436 117.5 84.436 116.366C84.436 115.218 85.262 114.42 86.41 114.42ZM85.808 109.59V111.886H86.97V109.59H85.808ZM104.791 109.436V122.092H105.953V109.436H104.791ZM101.081 110.794V110.99C101.081 114.35 99.3869 117.038 95.7329 118.802L96.3489 119.74C100.577 117.668 102.229 114.462 102.229 110.794H101.081ZM96.3069 110.794V111.746H101.585V110.794H96.3069Z" fill="white"/>
</g>
<defs>
<filter id="filter0_d_860_1759" x="16" y="17" width="132" height="160" filterUnits="userSpaceOnUse" color-interpolation-filters="sRGB">
<feFlood flood-opacity="0" result="BackgroundImageFix"/>
<feColorMatrix in="SourceAlpha" type="matrix" values="0 0 0 0 0 0 0 0 0 0 0 0 0 0 0 0 0 0 127 0" result="hardAlpha"/>
<feOffset dy="4"/>
<feGaussianBlur stdDeviation="8"/>
<feComposite in2="hardAlpha" operator="out"/>
<feColorMatrix type="matrix" values="0 0 0 0 0 0 0 0 0 0 0 0 0 0 0 0 0 0 0.24 0"/>
<feBlend mode="normal" in2="BackgroundImageFix" result="effect1_dropShadow_860_1759"/>
<feBlend mode="normal" in="SourceGraphic" in2="effect1_dropShadow_860_1759" result="shape"/>
</filter>
</defs>
</svg>
