<svg width="364" height="41" viewBox="0 0 364 41" fill="none" xmlns="http://www.w3.org/2000/svg">
<path d="M6.26037 9.47966C6.27674 9.3232 6.29162 9.16527 6.30762 9.0077H6.35523C6.38759 8.99209 6.41847 8.97648 6.45009 8.9605C6.43484 8.94564 6.41847 8.92966 6.40284 8.91331H6.30762C6.32398 8.88246 6.33886 8.85014 6.35523 8.81892C6.3716 8.7877 6.38611 8.75537 6.40284 8.72416H6.45009C6.41847 8.69294 6.3861 8.66098 6.35523 8.62976H6.30762V8.58294C6.43483 8.39341 6.56057 8.205 6.6863 8.01585C6.7659 8.00099 6.84439 7.98464 6.92251 7.96866C6.98612 7.8122 7.04824 7.6539 7.11185 7.49633C7.56939 7.27596 8.02619 7.05485 8.48299 6.83522C8.98629 6.83522 9.57291 6.65796 10.0427 6.83522C10.0591 6.82073 10.0732 6.80438 10.0896 6.78803C10.1063 6.75681 10.1205 6.72411 10.1368 6.69326C10.1536 6.70961 10.1681 6.72411 10.1841 6.74046V6.64644C10.4062 6.67877 10.6256 6.70961 10.8466 6.74046V6.78803H10.799C10.7045 6.86755 10.61 6.94596 10.5151 7.024C10.5315 7.05633 10.546 7.08755 10.5628 7.11839V7.21278H10.61C10.9258 7.13474 11.2409 7.05485 11.5556 6.97718C11.6352 7.22876 11.7137 7.47961 11.7918 7.73231C12.028 7.79585 12.2646 7.85791 12.5008 7.92109H12.5484V7.96866C12.5008 8.00099 12.4532 8.03183 12.4067 8.06267C12.4227 8.07865 12.4372 8.09463 12.4532 8.10987H12.4067C12.5335 8.23659 12.6589 8.3622 12.785 8.48818V8.58294C12.7374 8.6149 12.6902 8.64612 12.6425 8.67659C12.6589 8.74088 12.6738 8.80294 12.6902 8.86574C12.6902 8.86574 12.8959 9.19462 12.8322 9.4332C12.8959 9.52685 12.9572 9.62161 13.0208 9.716C13.0372 9.82712 13.0517 9.93563 13.0685 10.0467V10.0939C13.0532 10.1408 13.0372 10.1883 13.0208 10.2352C13.0532 10.2207 13.0841 10.2043 13.1153 10.1883V10.2352H13.1626C13.1789 10.2679 13.1934 10.2991 13.2102 10.3299C13.2262 10.3154 13.2407 10.2991 13.2574 10.2824V10.3299C13.2262 10.5187 13.1934 10.7079 13.1626 10.8966H13.1153V10.9438H12.785C12.6902 10.9914 12.5953 11.0382 12.5008 11.0858C12.5644 11.1653 12.6265 11.2434 12.6902 11.3218V11.369C12.4391 11.5904 12.1861 11.8101 11.9335 12.0301C11.9194 12.0624 11.9027 12.0932 11.8859 12.1245H11.9335C11.9659 12.0932 11.9971 12.0609 12.028 12.0301H12.0749C11.9808 12.2044 11.8859 12.3772 11.7918 12.55V12.5968C11.7446 12.6128 11.6966 12.6284 11.6501 12.644C11.6188 12.6912 11.5861 12.7391 11.5556 12.7859H11.508V12.8328C11.4135 12.8647 11.319 12.8963 11.2249 12.9279C11.1773 12.9123 11.1297 12.8963 11.0824 12.8796C11.0824 12.8796 10.5423 13.0985 10.4683 13.2107H10.3266C10.2477 13.3055 10.1681 13.4002 10.0896 13.4939C9.93373 13.4166 9.77527 13.3359 9.61718 13.2586C9.12987 13.2107 8.64034 13.1628 8.15155 13.1163V13.1628H8.10468C8.07343 13.0847 8.0407 13.0056 8.00982 12.9279C7.90046 12.9123 7.78998 12.8963 7.67876 12.8796C7.67876 13.2081 6.5959 11.732 6.54383 11.6521H6.49733V11.6053C6.59144 11.6053 6.56949 11.5715 6.49733 11.5105C6.48245 11.3853 6.46571 11.2586 6.45009 11.1326C6.00891 11.1326 6.20309 9.76357 6.11902 9.47966H6.26037ZM1.48593 23.5068C1.43832 23.6015 1.59641 23.8066 1.6749 23.6963H1.81663C1.81663 23.6963 2.44752 23.0251 2.52601 22.7513H2.62049C2.63686 22.7029 2.65137 22.6565 2.66736 22.6097C2.80946 22.4837 2.95156 22.3566 3.09291 22.231C3.12602 22.1845 3.15652 22.1366 3.18814 22.0901H3.23538C3.31499 22.1058 3.39311 22.121 3.47122 22.1366C3.61332 21.9638 3.75542 21.7895 3.89677 21.6174C3.91314 21.5558 3.92802 21.4918 3.94439 21.4287H4.08612V21.4755C4.11848 21.3974 4.14973 21.3183 4.1806 21.2399C4.2602 21.1451 4.33832 21.0504 4.41681 20.9563H4.46405V21.0039C4.63851 20.8616 4.81112 20.72 4.98409 20.5777H5.12619C5.14256 20.5948 5.15744 20.6092 5.17343 20.626V20.5777C5.18943 20.5004 5.20468 20.4193 5.22067 20.3424C5.17343 20.3272 5.12619 20.3112 5.07857 20.2952C5.23704 20.0585 5.39327 19.8225 5.55137 19.5862H5.59898C5.94009 19.5862 6.09112 18.9511 6.26037 18.7835C6.26037 18.9619 6.86485 18.2736 6.92251 18.216V18.0748C7.00249 17.9815 7.0806 17.8857 7.15909 17.792H7.20633C7.17471 17.7615 7.14272 17.7281 7.11185 17.6976H7.06424V17.6512C7.0806 17.666 7.09548 17.6813 7.11185 17.6976H7.20633C7.5534 17.6188 7.89897 17.5393 8.24641 17.4616C8.27877 17.4772 8.30927 17.4925 8.34052 17.5081V17.4616C8.37288 17.5081 8.40413 17.5549 8.43538 17.6029C8.67121 17.5549 8.9078 17.5081 9.14438 17.4616C9.22399 17.4144 9.30247 17.3665 9.38059 17.3193C9.41333 17.3052 9.44457 17.2888 9.47545 17.2725C9.46094 17.2572 9.44457 17.2424 9.42783 17.2245C9.44457 17.2108 9.45908 17.1937 9.47545 17.1777H9.28648C9.41333 17.1313 9.53869 17.0833 9.66479 17.0361C9.63317 17.0216 9.60081 17.0053 9.56993 16.9886C9.74439 16.7853 9.917 16.5805 10.0896 16.3754C10.1063 16.281 10.1205 16.1862 10.1368 16.0919C10.1223 16.0762 10.1063 16.0614 10.0896 16.0447H10.1368V16.0919C10.2317 15.983 10.3266 15.8719 10.4207 15.7611C10.7045 15.6199 10.9879 15.4776 11.2718 15.336V15.0528C11.1937 15.022 11.114 14.9893 11.0348 14.958H10.9879V15.0045H10.9407V14.958C11.0683 14.8484 11.1937 14.7384 11.319 14.6277C11.3354 14.6437 11.3499 14.6593 11.3659 14.6745V14.8161C11.4607 14.7696 11.5556 14.7221 11.6501 14.6745C11.6824 14.6608 11.7137 14.6437 11.7446 14.6277C11.7606 14.5184 11.7758 14.4077 11.7918 14.2969C11.8082 14.2824 11.8231 14.2657 11.839 14.2501H12.1697C12.1861 14.2349 12.2006 14.2193 12.2174 14.2025V14.1557C12.1697 14.061 12.1225 13.9662 12.0749 13.8714C12.0916 13.8101 12.1065 13.7466 12.1225 13.683C12.1861 13.6217 12.2482 13.5574 12.3122 13.4939C12.5008 13.5741 12.6902 13.6518 12.8787 13.7302V13.683C13.0208 13.5269 13.1626 13.369 13.3047 13.2107C13.3672 13.1494 13.43 13.0847 13.4933 13.0215C13.51 13.0067 13.5249 12.9911 13.5409 12.9747C13.5885 12.8328 13.635 12.6912 13.6826 12.55C13.6993 12.5656 13.7139 12.5808 13.7302 12.5968C13.8407 12.644 13.9497 12.6912 14.0609 12.7391C14.2026 12.6767 14.3444 12.6128 14.4861 12.55C14.6282 12.5187 14.7699 12.4864 14.9117 12.4556C15.0701 12.3604 15.2267 12.266 15.3844 12.172C15.3844 12.4849 16.8132 12.8079 17.0394 13.2586C17.0714 13.3378 17.3389 13.3831 17.4173 13.3055C17.5442 13.3055 17.8429 13.2742 17.8429 13.2586V12.8328C18.1312 12.8328 19.669 11.4738 19.9703 11.2742C20.0023 11.2593 20.0335 11.2434 20.0644 11.227C20.1448 11.1326 20.2221 11.0382 20.301 10.9438V10.8498C20.4118 10.7238 20.5208 10.5971 20.6321 10.4715V10.4243C20.744 10.4243 21.2336 9.57145 21.3414 9.76357C21.4988 9.63759 21.6558 9.51087 21.8139 9.38564V9.33807H21.9556C22.0028 9.22918 22.0504 9.11807 22.0977 9.0077C22.1297 8.96051 22.1613 8.91331 22.1922 8.86574H22.377C23.0671 8.60933 23.4346 7.81666 24.2247 7.68511C24.2574 7.6067 24.2879 7.52717 24.3192 7.44913C24.4308 7.43464 24.5398 7.41829 24.6506 7.40157C24.6975 7.44913 24.7451 7.49633 24.7923 7.54315V7.96866H24.8868C24.9497 8.03183 25.0122 8.09463 25.0758 8.15744C25.7536 7.9066 26.4306 7.65389 27.1087 7.40157V7.35437C27.1247 7.40157 27.1396 7.44913 27.1559 7.49633C28.1756 7.49633 28.8552 7.77653 29.5668 8.48818C29.5999 8.52051 29.6304 8.55135 29.6613 8.58294H29.7089C29.6773 8.62976 29.6453 8.67659 29.6144 8.72416V8.77135H29.8037V8.81892H29.8502C29.8361 8.85162 29.8194 8.88246 29.8037 8.91331C29.7881 8.92966 29.7717 8.94452 29.7558 8.9605C29.7881 9.18199 29.8194 9.40162 29.8502 9.62161H29.8037C29.8662 9.716 29.9284 9.81077 29.992 9.90479H30.0399C29.9771 10.0624 29.9142 10.2188 29.8502 10.3771V10.5187C29.9771 10.5986 30.1024 10.677 30.2289 10.755V10.8022C30.1504 10.9126 30.0701 11.0219 29.992 11.1326C30.0091 11.3218 30.0232 11.5105 30.0399 11.6997H29.8037C29.7249 12.0773 29.6453 12.4556 29.5668 12.8328C29.6959 12.8328 29.4388 13.3709 29.3306 13.4471C29.3157 13.5106 29.2993 13.5723 29.2833 13.6362C29.2688 13.6518 29.2525 13.6678 29.2357 13.683C29.3306 13.715 29.4243 13.7466 29.5195 13.777H29.5668C29.5515 13.7934 29.5355 13.8086 29.5195 13.8242V14.061C29.505 14.1085 29.4887 14.1557 29.4727 14.2025C29.4243 14.2501 29.3938 14.4393 29.5195 14.4393C29.5515 14.4857 29.5835 14.5333 29.6144 14.5805C29.8037 14.4857 29.992 14.3921 30.1813 14.2969C30.3044 14.1457 30.4253 13.9918 30.5459 13.8395C30.8077 13.6797 31.0674 13.5199 31.3293 13.3586C31.9854 12.8008 32.4664 11.8368 33.3964 12.4556C33.412 12.4716 33.4276 12.4864 33.4432 12.5028C33.412 12.5187 33.3793 12.5332 33.3491 12.55V12.5968H33.3012V12.644C33.5069 12.7544 33.7107 12.864 33.916 12.9747C33.932 12.9911 33.9469 13.0056 33.9629 13.0215V13.2586H34.5778C34.6418 13.3055 34.7028 13.3523 34.7668 13.4002C34.7523 13.4326 34.7363 13.4627 34.7192 13.4939C34.6418 13.5741 34.7095 13.6804 34.6306 13.7588C34.6157 13.7588 34.9721 14.3754 35.0506 14.2969H35.0978C35.1302 14.2824 35.1618 14.2657 35.1927 14.2501C35.1782 14.0929 35.1618 13.9354 35.1451 13.777C35.1927 13.6046 35.2392 13.4307 35.2872 13.2586V13.1628C35.2392 13.1628 35.3341 12.8796 35.4285 12.7391C35.6722 12.7391 35.6357 11.9773 35.6647 11.7945C35.6339 11.7792 35.6019 11.7632 35.5706 11.7473C35.5394 11.5904 35.507 11.4325 35.4765 11.2742C35.4538 11.1148 35.4323 10.9554 35.4096 10.7963C35.2634 9.34253 34.4952 8.00099 34.4361 6.69326C34.4048 6.67877 34.3721 6.66242 34.3412 6.64644C34.3754 6.64644 34.1921 6.20719 34.3412 6.07972V5.98496H34.2002C34.2162 5.92327 34.2307 5.85935 34.2471 5.79618C34.2326 5.76533 34.2162 5.73263 34.2002 5.70179C34.1374 5.65422 34.0738 5.60665 34.0105 5.55946C33.8852 5.4502 33.7583 5.33983 33.6322 5.22909V5.13507C33.601 5.12057 33.569 5.10422 33.5377 5.08824C33.5545 5.00946 33.569 4.92993 33.5853 4.85189C33.5377 4.83703 33.4905 4.82031 33.4432 4.80433C33.4756 4.69507 33.5069 4.58433 33.5377 4.47396C33.4905 4.45909 33.4432 4.44237 33.3964 4.42639V4.23798C33.3175 4.19079 33.2379 4.14322 33.1598 4.09602H32.9701C32.9556 4.112 32.9396 4.12687 32.9236 4.14322C32.9087 4.08153 32.892 4.01836 32.8756 3.95407C32.8615 3.92359 32.8447 3.89089 32.8287 3.85967C32.7811 3.79761 32.7339 3.73407 32.687 3.67052V3.43491C32.6558 3.3565 32.6238 3.27698 32.5925 3.19857C32.498 3.10418 32.4032 3.00978 32.3087 2.91502V2.39587C32.3251 2.38064 32.3392 2.36466 32.3559 2.34868C32.3251 2.33381 32.2923 2.31783 32.2618 2.30148H32.1673C32.0725 2.27101 31.978 2.23831 31.8828 2.20709C31.7738 2.17587 31.6633 2.14354 31.5521 2.11233C31.5216 2.12868 31.4885 2.14354 31.458 2.15952V2.25428H31.4111C31.4111 1.85851 30.3576 1.22527 30.0399 0.979263V1.02646C29.8502 0.964398 29.6613 0.90048 29.4727 0.836934C29.2993 0.79011 29.1249 0.742914 28.9523 0.695347C28.8898 0.742914 28.8269 0.79011 28.7629 0.836934C28.4601 0.836934 28.2328 0.798656 28.0067 1.02646C27.8173 1.04244 27.628 1.05768 27.4394 1.07403H27.2036V0.979263C27.1247 0.836933 27.0451 0.695347 26.9662 0.55376H26.9194V0.506565H26.8717V0.55376C26.8245 0.570111 26.7776 0.584976 26.73 0.600955C26.6995 0.586091 26.6671 0.570111 26.6355 0.55376V0.648523H26.4942C26.3993 0.680111 26.3048 0.711698 26.21 0.742913V0.695347H25.8793C25.7848 0.742914 25.6899 0.79011 25.5962 0.836934H25.5013V0.79011C25.4392 0.853285 25.3756 0.914973 25.3116 0.979263C25.2971 0.994871 25.2815 1.01011 25.2644 1.02646C25.2026 1.05842 25.1387 1.08963 25.0758 1.12122V1.07403C24.9337 1.12122 24.7923 1.16767 24.6506 1.21524V1.16767H23.9412V1.21524H23.7515C23.7214 1.27804 23.6887 1.34048 23.6582 1.40402V1.35683C23.6422 1.37281 23.6265 1.38804 23.6102 1.40402C23.5012 1.32561 23.3903 1.24609 23.2795 1.16767C23.265 1.1844 23.2486 1.19889 23.2326 1.21524V1.16767C23.1701 1.30963 23.1065 1.45122 23.0429 1.59281H22.9484C22.9484 1.57757 22.5329 1.33416 22.4764 1.16767C22.4611 1.08963 22.444 1.01011 22.4287 0.931695H22.3819C22.3659 0.916831 22.3495 0.90048 22.3335 0.8845C22.303 0.90048 22.2707 0.914972 22.239 0.931695C22.2245 0.916831 22.2082 0.90048 22.1922 0.8845C22.1613 0.931696 22.1286 0.979263 22.0977 1.02646H22.0028C21.7666 0.870007 21.5304 0.711698 21.2942 0.55376H21.2462C21.2321 0.539267 21.2161 0.522545 21.1997 0.506565H21.0104C20.9955 0.491701 20.9795 0.47572 20.9627 0.459369V0.412174H20.9155C20.901 0.428896 20.8846 0.443389 20.8686 0.459369C20.8214 0.4917 20.7742 0.522544 20.7262 0.55376C20.5565 0.56751 20.3858 0.578659 20.2139 0.592409C19.3706 0.76967 18.9351 1.31372 18.2491 1.75557C17.815 1.98561 17.3794 2.21452 16.9446 2.44232V2.39587C16.93 2.41222 16.9133 2.42672 16.8973 2.44232C16.1723 2.44232 15.6076 1.73885 14.8168 1.97074V2.01794C14.8027 2.00307 14.7859 1.98709 14.7699 1.97074C14.6606 1.86148 14.5501 1.75037 14.4389 1.64C14.3611 1.60916 14.2811 1.57645 14.2026 1.54524H14.1085V1.49841C14.03 1.57757 13.9497 1.65635 13.8716 1.73439V1.78159H13.9192V1.82915C13.8716 1.79794 13.8243 1.76561 13.7775 1.73439V1.78159H12.9736C12.9736 1.8128 12.2717 2.24797 12.1697 2.39587H12.1225V2.44232C12.028 2.41222 11.9335 2.37952 11.839 2.34868H11.7918V2.30148C11.8082 2.27101 11.7137 2.23831 11.6501 2.25428C11.6501 2.07554 11.2803 2.22604 11.1773 2.25428C11.0043 2.23905 10.8298 2.22344 10.6572 2.20709C10.5951 2.27101 10.5315 2.33232 10.4683 2.39587H10.4207C10.3117 2.40033 10.2001 2.40405 10.0911 2.40925C9.09156 2.60063 8.41492 3.4914 7.25358 3.10417C7.14124 3.13836 7.02852 3.16995 6.91656 3.20451C5.94902 3.49958 5.27833 4.39109 4.36957 4.80433V4.75713C4.01358 4.75713 1.57186 8.95047 1.29696 9.47966C1.27465 9.54209 1.25121 9.60378 1.22703 9.66546C1.01463 10.8498 1.24377 12.0594 1.20211 13.2586C1.21848 13.2742 1.23335 13.2891 1.24972 13.3055C1.21848 13.3214 1.18611 13.3359 1.15487 13.3523V13.4002C1.39591 13.4002 1.34235 15.7708 1.29696 16.1862H1.24972C1.20211 16.2331 1.15487 16.281 1.10762 16.3278H1.20211C1.1876 16.3609 1.17086 16.3918 1.15487 16.4222H1.10762V19.2558C1.15487 19.3357 1.20211 19.4141 1.24972 19.4922C1.12399 19.9336 0.997144 20.3729 0.871785 20.8144C0.871785 21.7293 0.846118 22.8661 1.48593 23.5068Z" fill="white"/>
<path d="M35.6649 24.1673C35.6031 24.1528 35.5395 24.1372 35.4766 24.1212H35.4286V24.0733C35.535 24.0733 34.9439 23.0684 34.9086 22.7031H34.8614C34.8777 22.5474 34.8922 22.3891 34.9086 22.2312V21.9952C34.8472 21.948 34.7832 21.9004 34.7193 21.8533H34.6724V21.8061C34.6884 21.8224 34.7029 21.8365 34.7193 21.8533C34.7524 21.8388 34.7832 21.8224 34.8137 21.8061C34.7989 21.7923 34.7832 21.7752 34.7665 21.7596C34.6884 21.6648 34.6092 21.5704 34.5307 21.4757H34.5779V19.728C34.547 19.6191 34.5147 19.5076 34.4831 19.3969H34.4362C34.4049 19.4143 34.3722 19.4284 34.3413 19.4452H34.2472C34.2472 19.5886 33.9221 20.1029 33.9161 20.5314C33.8853 22.4631 34.3175 24.4393 33.8213 26.0574H33.7744V26.1046H33.7264C33.6319 26.0098 33.5375 25.9147 33.4434 25.8199C33.4121 25.8377 33.3794 25.8515 33.3489 25.8678C33.3649 25.695 33.3794 25.5211 33.3961 25.3491C33.3176 25.2859 33.238 25.2235 33.1599 25.1595C33.0974 25.1123 33.0342 25.064 32.9698 25.0183V24.9708C32.9866 24.8771 33.0018 24.7823 33.0178 24.6876C32.9088 24.6244 32.7983 24.562 32.6871 24.4984C32.7035 24.4196 32.718 24.3401 32.734 24.2628C32.7035 24.2476 32.6704 24.2316 32.6395 24.2145C32.5138 24.1837 32.3869 24.1513 32.2619 24.1212H32.2139C32.1994 24.1372 32.1831 24.1513 32.1674 24.1673V24.0733C32.1518 24.0889 32.1354 24.1041 32.1198 24.1212V24.1673C32.0722 24.1837 32.0246 24.1989 31.9777 24.2145V24.2628C31.7222 24.2628 31.294 24.1287 31.2211 23.8838C31.191 23.7901 31.1579 23.6961 31.1266 23.6017H31.0798C31.0321 23.5865 30.9849 23.5701 30.9377 23.5534V23.3657C30.8908 23.3498 30.8428 23.3334 30.7963 23.3171C30.8123 23.3026 30.8268 23.2866 30.8428 23.2702C30.8287 23.1613 30.8123 23.0506 30.7963 22.9402C30.8428 22.8615 30.8908 22.7819 30.9377 22.7031V22.6099C30.8908 22.5943 30.8428 22.5783 30.7963 22.5619C30.8123 22.5474 30.8268 22.5311 30.8428 22.5155H30.7963C30.8287 22.4995 30.8592 22.4839 30.8908 22.4672C30.9068 22.453 30.9209 22.4363 30.9377 22.4207C30.8908 22.3416 30.8428 22.262 30.7963 22.1847V21.8061C30.8123 21.6176 30.8268 21.4289 30.8428 21.2397H30.7963V21.1921H30.7491V21.2397C30.7338 21.2869 30.7171 21.3337 30.7014 21.3809H30.6546V21.4289C30.623 21.3501 30.5902 21.2706 30.5593 21.1921C30.5117 21.1613 30.4652 21.1286 30.4172 21.0978V21.0502C30.4027 21.0364 30.3864 21.0186 30.3707 21.0037C30.4027 20.9885 30.3707 20.8454 30.3707 20.8614H30.2755C30.2755 20.4166 29.6063 20.903 29.5193 21.0037V20.9562H29.1886C29.1886 21.427 26.4601 23.8723 26.0215 24.1212C26.0237 24.1651 26.0256 24.2074 26.0286 24.2509C25.9181 24.598 25.5837 24.9395 25.2645 25.1123V25.154C25.138 25.141 25.0119 25.1265 24.8869 25.1123C24.8244 25.1595 24.7612 25.2067 24.6976 25.2543H24.3661C24.352 25.1447 24.3356 25.0339 24.3193 24.9228C24.304 24.9087 24.288 24.8927 24.2717 24.8771V24.8288C24.352 24.8139 24.4305 24.798 24.5079 24.7823V24.7344C24.4934 24.6876 24.4774 24.6396 24.461 24.5924H24.3193C24.304 24.6088 24.288 24.6233 24.2717 24.6396V24.5924H24.3193C24.304 24.578 24.288 24.562 24.2717 24.546C24.2572 24.5308 24.2412 24.5144 24.2248 24.4984V24.4512C24.2103 24.4676 24.1932 24.4821 24.1772 24.4984C24.1627 24.5144 24.1463 24.5296 24.1303 24.546H23.941C23.8941 24.5924 23.8465 24.6396 23.7996 24.6876C23.7847 24.7036 23.768 24.7177 23.7516 24.7344V24.6876C23.7371 24.7036 23.7215 24.7177 23.7048 24.7344C23.6423 24.7036 23.5798 24.6705 23.5154 24.6396V24.5924C23.4537 24.4196 23.3901 24.2461 23.3268 24.0733C23.3432 24.0265 23.3581 23.9785 23.3741 23.9321C23.4685 23.7901 23.563 23.6482 23.6579 23.507V23.3657H23.6099C23.6423 23.3498 23.6743 23.3334 23.7048 23.3171H23.7516C23.7371 23.2866 23.7215 23.2546 23.7048 23.223H23.3741V23.3171H23.2796C23.2487 23.3334 23.2152 23.3483 23.1847 23.3657C23.1382 23.4122 23.0902 23.459 23.043 23.507C22.9805 23.4921 22.9176 23.4761 22.8533 23.459C22.7755 23.4445 22.6963 23.4282 22.6174 23.4122V23.3657C22.6334 23.3334 22.6483 23.3018 22.6647 23.2702C22.6029 23.1613 22.5393 23.0506 22.4761 22.9402C22.5085 22.8778 22.5393 22.8139 22.5702 22.7511H22.6174V22.7975C22.6498 22.7834 22.6807 22.7667 22.7123 22.7511C22.6978 22.7358 22.6807 22.7195 22.6647 22.7031C22.6498 22.6723 22.6334 22.6407 22.6174 22.6099H22.5702V22.5619C22.5858 22.5783 22.6014 22.5928 22.6174 22.6099C22.6498 22.5943 22.6807 22.5783 22.7123 22.5619C22.6978 22.5474 22.6807 22.5311 22.6647 22.5155C22.6807 22.4995 22.6963 22.4839 22.7123 22.4672C22.6647 22.4839 22.6174 22.4988 22.5702 22.5155V22.4672C22.5858 22.4207 22.6014 22.3728 22.6174 22.3259V22.2788C22.5557 22.2635 22.4917 22.2479 22.4285 22.2312H22.382C22.366 22.2479 22.3496 22.262 22.3336 22.2788V22.2312C22.3336 22.2163 22.2867 22.262 22.2867 22.2788C22.2246 22.3259 22.161 22.3728 22.0978 22.4207H22.0505C22.0193 22.4055 21.9866 22.3891 21.9557 22.3728H21.8645C21.8794 22.1691 21.8932 21.9629 21.9081 21.7596H21.9557C21.8463 21.6648 21.7358 21.5704 21.625 21.4757C21.6722 21.2869 21.7187 21.0978 21.7667 20.9082C21.9691 20.9082 22.0736 20.5938 22.0978 20.4363C22.0825 20.4058 22.0665 20.3731 22.0505 20.3426H22.0029V20.2951C22.0505 20.2475 22.0978 20.2007 22.1443 20.1531C22.2246 20.1379 22.3031 20.1226 22.382 20.1059H22.4761C22.4917 19.9803 22.5066 19.8536 22.523 19.728H22.382V19.6808C22.3972 19.6343 22.4117 19.5864 22.4285 19.5396C22.523 19.5076 22.6174 19.4756 22.7123 19.4452C22.7755 19.3969 22.838 19.3504 22.9009 19.304C22.9176 19.2092 22.9321 19.1144 22.9481 19.0197C23.0757 18.9104 23.2007 18.8 23.3268 18.6889V18.547C23.4061 18.4856 23.4845 18.4225 23.563 18.3589C23.563 18.0657 23.6192 17.8231 23.7516 17.6031C23.8152 17.399 23.8777 17.1935 23.941 16.9888C23.9265 16.9746 23.9101 16.9583 23.8941 16.9423C23.957 16.8944 24.0191 16.8479 24.0831 16.8011V16.5172C23.9733 16.4221 23.8625 16.3277 23.7516 16.2329V16.1861C23.7996 16.124 23.8465 16.0616 23.8941 15.9973H23.7048C23.6903 16.03 23.6743 16.0616 23.6579 16.0921C23.5009 16.2329 23.3432 16.3752 23.1847 16.5172C23.2007 16.5491 23.2152 16.5807 23.2327 16.6116C23.1847 16.6443 23.1382 16.6744 23.0902 16.7056H22.8533V16.6584C22.6334 16.8944 22.4117 17.1311 22.1923 17.3663V17.4618H22.0978V17.4143C22.0349 17.5083 21.972 17.6031 21.9081 17.6978H21.8608C21.7827 17.7617 21.7027 17.8231 21.625 17.8859H21.5774V17.9338H21.625C21.6875 17.9186 21.7503 17.9029 21.8136 17.8859V17.8394H21.8608C21.8463 17.855 21.8296 17.8702 21.8136 17.8859C21.7518 17.997 21.6875 18.1055 21.625 18.2159C21.6414 18.2333 21.6555 18.2478 21.6722 18.2642C21.6573 18.2801 21.6414 18.2946 21.625 18.3121H21.5305C21.516 18.3441 21.4989 18.3749 21.4825 18.4054V18.4537C21.3099 18.5001 21.1358 18.547 20.9628 18.5949V18.547C20.9156 18.58 20.8687 18.6105 20.8211 18.6425C20.8535 18.7837 20.8847 18.9256 20.9156 19.0661C20.932 19.0988 20.9465 19.1304 20.9628 19.1616H21.0105C21.0261 19.1939 21.041 19.2248 21.057 19.2556C20.9628 19.3664 20.8687 19.4756 20.7743 19.5864C20.7597 19.6035 20.7423 19.6172 20.7263 19.6343H20.5373V19.5864H20.4901C20.4755 19.6503 20.4592 19.7124 20.4436 19.7755V19.8227H20.4901C20.5373 19.8075 20.5845 19.7915 20.6318 19.7755H20.6794V19.8703C20.6009 19.9803 20.5209 20.0892 20.4436 20.2007C20.1914 20.3274 19.9391 20.453 19.6869 20.5779C19.7193 20.6262 19.7498 20.6734 19.7803 20.7202H19.8283V20.7674C19.4831 20.7674 18.1339 22.9789 17.6064 23.3171V23.4122H17.5123C17.5034 23.43 17.4926 23.446 17.484 23.4635C17.3245 24.1287 16.8911 24.701 16.3774 25.1123C16.3625 25.1447 16.3461 25.1748 16.3301 25.2067H16.3774C16.3934 25.2391 16.4083 25.2699 16.4246 25.3015C16.2676 25.4594 16.1099 25.6163 15.9518 25.7731V25.8199C15.9369 25.8054 15.9206 25.7898 15.9046 25.7731C15.8425 25.8533 15.7789 25.931 15.716 26.0098C15.6539 26.0414 15.5899 26.073 15.5266 26.1046C15.5423 26.1205 15.5571 26.1347 15.5739 26.1514V26.1993H15.7625C15.7476 26.2149 15.7316 26.2294 15.716 26.2458C15.6684 26.4201 15.6208 26.5929 15.5739 26.7657C15.5266 26.7341 15.4794 26.7018 15.4318 26.6702H15.3842C15.3228 26.704 15.2592 26.7341 15.1956 26.7657C15.1647 26.8597 15.132 26.9533 15.1007 27.0488C15.0858 27.0645 15.0698 27.0789 15.0535 27.0957V27.0488H15.0062C14.9277 27.0016 14.8481 26.9533 14.77 26.9069C14.6755 26.876 14.5807 26.843 14.4862 26.8121C14.4241 26.9069 14.3608 27.0016 14.2972 27.0957V27.1901C14.25 27.1759 14.2027 27.16 14.1555 27.1429C14.1239 27.1113 14.0915 27.0789 14.061 27.0488C14.0506 26.9492 14.0391 26.85 14.0268 26.7504C13.7504 25.772 13.2672 25.093 13.3044 23.9785H13.1627V24.0265C13.1478 24.0889 13.1314 24.1513 13.1154 24.2145H13.0682V24.1673C12.9737 24.0889 12.8789 24.0101 12.7847 23.9321C12.8171 23.9168 12.848 23.9005 12.8788 23.8838C12.848 23.8366 12.8156 23.7901 12.7847 23.7426C12.7059 23.7277 12.6266 23.7117 12.5482 23.6961V23.7426C12.5333 23.7277 12.5169 23.7117 12.5009 23.6961H12.4068V23.7426H12.1695C12.139 23.7901 12.1062 23.8366 12.075 23.8838H11.9809C11.9972 23.8529 12.0121 23.821 12.0281 23.7901H11.8856V23.8366H11.8391C11.8243 23.8529 11.8079 23.8682 11.7915 23.8838C11.6353 23.8366 11.4768 23.7901 11.3191 23.7426V23.5534C11.177 23.5393 11.0349 23.5226 10.8936 23.507V23.7426C10.4226 23.7426 9.3156 25.5966 9.14448 26.0098C9.09724 25.9949 9.04963 25.979 9.00238 25.9619V26.0574C9.00238 25.7095 8.33913 27.0618 8.29338 27.2841C8.23126 27.2707 8.16802 27.254 8.10441 27.2376C8.00993 27.2068 7.9147 27.1737 7.82059 27.1429C7.71122 27.2224 7.60074 27.3008 7.48989 27.3788H7.30055C7.28604 27.3487 7.26967 27.3149 7.25368 27.2841V27.2376C7.15882 27.3487 7.06434 27.4576 6.96948 27.568C6.92224 27.6007 6.87537 27.6308 6.82812 27.6631C6.73364 27.6144 6.63841 27.568 6.54393 27.5204C6.52942 27.2841 6.51305 27.0488 6.49706 26.8121H6.16562V26.7657C6.13474 26.7984 6.10238 26.8292 6.07188 26.8597V26.9069H6.02426C5.97702 26.876 5.92978 26.843 5.88254 26.8121V26.7657H6.07188V26.5754C6.05663 26.5929 6.04063 26.607 6.02426 26.6233C6.05663 26.4201 6.08787 26.2149 6.11912 26.0098C6.15111 25.9949 6.18236 25.979 6.21286 25.9619C6.27684 25.7898 6.33896 25.6163 6.40257 25.4435C6.38769 25.381 6.37133 25.3175 6.35533 25.2543C6.38769 25.2391 6.4182 25.2235 6.44982 25.2067C6.43456 25.1287 6.4182 25.0484 6.40257 24.9708H6.44982C6.37133 24.9228 6.29172 24.8771 6.21286 24.8288V24.5924H6.26048C6.22997 24.578 6.19724 24.562 6.16562 24.546V24.4984C6.11912 24.562 6.07188 24.6233 6.02426 24.6876H5.97702C5.86766 24.798 5.75681 24.9072 5.64633 25.0183V25.1595C5.70994 25.2235 5.77131 25.2851 5.83492 25.3491C5.82041 25.3639 5.80442 25.3792 5.78768 25.3955H5.74081V25.4435H5.69357C5.69357 24.8065 3.91436 25.8054 3.75552 25.8678H3.70791C3.69266 25.8533 3.67666 25.8377 3.66066 25.8199V25.8678C3.62942 25.8838 3.59705 25.8987 3.56581 25.9147C3.53493 25.8533 3.50257 25.7898 3.47132 25.7266H3.51894C3.50406 25.5059 3.48769 25.2851 3.47132 25.064C3.79495 25.064 2.5421 24.659 2.1478 24.8288C2.06968 24.8139 1.99008 24.798 1.91122 24.7823C1.88034 24.798 1.84761 24.8124 1.81673 24.8288V24.8771C1.76949 24.9875 1.72225 25.0956 1.675 25.2067H1.58052C1.48604 25.1287 1.17096 25.5538 1.29707 25.5843C1.31306 26.4509 1.32757 27.3149 1.34431 28.1819V28.2291C1.32906 28.2759 1.49496 28.3677 1.52286 28.3662C2.03732 28.6167 2.50379 28.5747 3.09264 28.7007C3.10901 28.6873 3.12426 28.6698 3.14026 28.6542C4.1037 28.6542 4.94588 28.6721 5.74081 28.2759C5.75681 28.2622 5.77131 28.2458 5.78768 28.2291V28.4647C5.82042 28.5602 5.85092 28.6542 5.88254 28.749C5.99302 28.7345 6.10238 28.7174 6.21286 28.7007V28.607H6.26048C6.37133 28.6226 6.48069 28.6383 6.59117 28.6542C6.71876 28.6698 6.84412 28.6851 6.96948 28.7007C7.04946 28.6542 7.12795 28.607 7.20644 28.5602C7.2388 28.6226 7.26967 28.6851 7.30055 28.749V28.7954C7.44227 28.5925 7.58437 28.3867 7.7261 28.1819H7.77334C7.83658 28.215 7.89907 28.2458 7.96194 28.2759C8.00993 28.3566 8.05717 28.4339 8.10441 28.5134C8.18402 28.5925 8.26176 28.6698 8.34062 28.749H8.43511V28.7954C8.52959 28.7653 8.62407 28.733 8.71893 28.7007C8.81341 28.4978 8.90753 28.293 9.00238 28.0879H8.95477V28.0399C9.01838 28.0095 9.0805 27.9775 9.14448 27.9452C9.31894 28.0879 9.49154 28.2291 9.66452 28.3714C10.0279 28.3566 10.3899 28.3395 10.7518 28.3246C10.7373 28.3566 10.7202 28.3867 10.7042 28.4183C11.1208 28.4183 11.4638 28.0749 11.8391 28.2759C11.8708 28.2622 11.9028 28.2458 11.9336 28.2291C11.9634 28.2276 11.9913 28.2265 12.0192 28.2243C12.2364 28.0961 13.1657 28.2759 13.4934 28.2759C13.5882 28.3094 13.6823 28.3395 13.7772 28.3714H13.9193C13.9665 28.403 14.0138 28.4339 14.061 28.4647C14.2972 28.3246 14.5331 28.1819 14.77 28.0399C14.8028 28.0879 14.8336 28.1347 14.8645 28.1819C14.8972 28.1674 14.9277 28.1518 14.959 28.1347C14.975 28.1518 14.9899 28.1652 15.0062 28.1819C15.0062 27.9266 15.5129 27.8597 15.716 27.8512C15.7316 27.8203 15.7465 27.788 15.7625 27.7564C15.8573 27.7263 15.9518 27.6932 16.0459 27.6631H16.0936C16.1099 27.6784 16.1248 27.6932 16.1412 27.71C16.1412 28.4814 17.5681 28.1618 17.9844 28.1347C18.0011 28.1518 18.0156 28.1652 18.0316 28.1819V28.0399C18.2366 28.0563 18.4408 28.0708 18.6465 28.0879C18.6789 28.1042 18.7097 28.1187 18.741 28.1347C19.2138 28.1674 19.6869 28.199 20.159 28.2291V28.4183H20.2062C20.2285 28.4301 20.2494 28.4394 20.2702 28.4517C20.7698 28.2837 21.2671 28.1139 21.7667 27.9452C22.0338 27.9452 22.2983 27.7512 22.6174 27.8047H22.7123C22.8232 27.7735 22.9321 27.7401 23.043 27.71H23.0902C23.0902 27.7263 23.563 27.8203 23.563 27.8047H26.1632C26.1952 27.8203 26.2261 27.8348 26.2577 27.8512H26.3046V27.7564C26.5739 27.7735 26.8413 27.788 27.1088 27.8047C27.1248 27.8203 27.1397 27.8348 27.1557 27.8512V27.8984C27.2665 27.8668 27.3755 27.8348 27.4867 27.8047C27.865 27.7735 28.243 27.7401 28.6217 27.71C28.638 27.7263 28.6522 27.7401 28.6682 27.7564C28.6845 27.8047 28.7002 27.8512 28.7165 27.8984C28.7005 27.9151 28.6845 27.9292 28.6682 27.9452C28.6537 27.9314 28.638 27.9151 28.6217 27.8984C28.6057 27.9452 28.5901 27.9931 28.5737 28.0399H29.1417C29.2049 28.0563 29.2671 28.0708 29.3303 28.0879C29.363 28.121 29.3939 28.1518 29.4244 28.1819C29.4888 28.1674 29.5501 28.1518 29.6141 28.1347V28.1819C29.7555 28.2458 29.898 28.3079 30.0397 28.3714V28.4183H29.9448C29.9303 28.4339 29.9143 28.4491 29.898 28.4647C29.898 28.4814 30.0702 28.7174 30.2286 28.6542C30.3399 28.749 30.4492 28.8434 30.5593 28.9367C30.5452 28.9545 30.5281 28.969 30.5117 28.985C30.4972 28.9697 30.4812 28.9545 30.4652 28.9367C30.4504 28.985 30.7491 29.0961 30.7491 29.0797C30.9231 29.1425 31.0961 29.205 31.2683 29.2689C31.2847 29.3153 31.3 29.3622 31.316 29.4097C31.3632 29.3622 31.4108 29.3153 31.4577 29.2689H31.5994C31.6162 29.348 31.6307 29.4257 31.647 29.5045C31.6634 29.5208 31.6775 29.5353 31.6939 29.5509H31.647V29.5045H31.5994C31.4577 29.584 31.4886 30.166 31.4577 30.166C31.4432 30.2284 31.4268 30.2912 31.4108 30.3548H31.0798C31.0016 30.3076 30.9209 30.2604 30.8428 30.2124V30.166H30.7963C30.7963 30.5395 29.9627 30.7219 29.709 30.8743V30.8267C29.6937 30.8427 29.677 30.8576 29.6614 30.8743H29.4244C29.2354 30.8267 29.0469 30.7803 28.8575 30.732V30.7803C28.7954 30.8122 28.7321 30.8427 28.6682 30.8743C28.6845 30.9066 28.7002 30.9371 28.7165 30.9679C28.5588 30.9839 28.4011 30.9995 28.243 31.0162C28.134 31.0318 28.0231 31.0463 27.9123 31.0627C27.8974 31.1575 27.8814 31.2511 27.865 31.3466C27.8174 31.3622 27.7702 31.3775 27.7226 31.3931V31.441H27.9123V31.4878C27.6917 31.7409 27.4704 31.9914 27.2502 32.2433C27.2356 32.4485 27.2193 32.6517 27.2037 32.8576V32.952H27.1088C27.0612 32.9212 27.0143 32.8884 26.9663 32.8576C26.9518 32.8431 26.9355 32.8264 26.9195 32.81V32.9996C26.9042 32.9843 26.889 32.9687 26.8718 32.952H26.8246C26.1316 33.0627 25.4375 33.172 24.7452 33.2824H24.1303V33.2359H24.0831C24.0678 33.2515 24.0518 33.2668 24.0358 33.2824C23.8625 33.4243 23.6888 33.5667 23.5154 33.7079V33.6603H23.4685C23.4213 33.6454 23.3741 33.6295 23.3268 33.6131C23.0114 33.5183 22.6963 33.4243 22.382 33.3296V33.2824C22.1923 33.3626 22.0029 33.4403 21.8136 33.5183H21.7667V33.4719H21.7187C21.7046 33.4875 21.6875 33.5024 21.6722 33.5183V33.4719H21.7187C21.7046 33.4403 21.6875 33.4072 21.6722 33.3771C21.6573 33.3935 21.6414 33.4072 21.625 33.4243V33.3771C21.5937 33.3935 21.5606 33.4072 21.5305 33.4243C21.516 33.4567 21.4989 33.4875 21.4825 33.5183V33.6131C21.4356 33.5986 21.388 33.5823 21.3412 33.5667V33.6131C21.3263 33.5986 21.3099 33.5823 21.2939 33.5667V33.4243H21.2463V33.3771H21.1994V33.4243C21.1842 33.4403 21.1678 33.4552 21.1514 33.4719C21.1369 33.4875 21.1213 33.5024 21.1049 33.5183H21.0105C20.9792 33.5507 20.9465 33.5823 20.9156 33.6131C20.9011 33.6454 20.8847 33.677 20.8687 33.7079C20.6794 33.6934 20.4901 33.677 20.3007 33.6603H20.2538V33.6131C20.0176 33.5347 19.7803 33.4552 19.5445 33.3771C19.5296 33.3935 19.514 33.4072 19.4972 33.4243V33.3771H19.5445C19.5296 33.3455 19.514 33.3132 19.4972 33.2824H19.4027V33.2359C19.261 33.3296 19.1189 33.4243 18.9776 33.5183C18.8827 33.5038 18.7878 33.4875 18.6937 33.4719C18.6312 33.5183 18.568 33.5667 18.5044 33.6131V33.7079C17.7336 33.7079 16.7438 33.4336 15.9046 33.6131H14.8645V33.5667C14.2042 33.5667 13.1645 33.6692 12.5009 33.8491V33.8023H12.4068V33.897C12.3912 33.8822 12.3752 33.8654 12.3592 33.8491C12.3443 33.8654 12.3279 33.8814 12.3119 33.897V33.9438H12.2643C12.139 33.9126 12.0121 33.8814 11.8856 33.8491C11.6353 33.8182 11.3823 33.7859 11.1298 33.7551H11.0825V33.8023H11.0349C11.0208 33.8182 11.0044 33.8327 10.988 33.8491V33.8023C10.4844 33.7874 9.97922 33.771 9.47518 33.7551V33.8023C9.46067 33.8182 9.4443 33.8327 9.42756 33.8491C9.41343 33.8654 9.39706 33.8814 9.38032 33.897C9.36581 33.8822 9.34982 33.8654 9.33308 33.8491C9.28621 33.8182 9.23897 33.7859 9.19172 33.7551H9.09724V33.7079H8.95477C8.94063 33.7398 8.9239 33.771 8.90753 33.8023H8.19889C8.08953 33.9294 7.97868 34.0546 7.86783 34.1795V34.2742C7.82059 34.2597 7.77334 34.2434 7.7261 34.2266C7.58437 34.1486 7.44227 34.0691 7.30055 33.9918C7.2388 34.0854 7.17482 34.1794 7.11195 34.2742V34.3686C6.96948 34.3378 6.82813 34.3058 6.68603 34.2742H6.63841V34.2266H6.59117C6.49706 34.3545 6.40257 34.479 6.30772 34.6046C6.29358 34.6213 6.27684 34.6362 6.26048 34.6529C6.19873 34.5581 6.13474 34.4634 6.07188 34.3686C6.02426 34.3853 5.97702 34.3991 5.92978 34.4169C5.9149 34.4325 5.89853 34.4478 5.88254 34.4634C5.89853 34.4957 5.91379 34.5265 5.92978 34.5581H5.83492C5.55147 34.4325 5.26765 34.3058 4.98419 34.1795V34.1326C4.95295 34.165 4.92058 34.1958 4.88971 34.2266C4.8752 34.2434 4.85883 34.2582 4.84246 34.2742C4.82758 34.2597 4.81122 34.2434 4.79522 34.2266C4.74798 34.1958 4.70074 34.1635 4.65312 34.1326C4.5114 34.1486 4.36967 34.1635 4.22757 34.1795V34.1326C4.14945 34.1794 4.06985 34.2266 3.99173 34.2742C3.97648 34.2906 3.96011 34.3058 3.94449 34.3222C3.91324 34.2742 3.88051 34.2266 3.84926 34.1795C3.83513 34.165 3.81839 34.1486 3.80165 34.1326C3.77152 34.1486 3.73878 34.1635 3.70791 34.1795C3.69266 34.165 3.67666 34.1486 3.66066 34.1326C3.61305 34.1794 3.56581 34.2266 3.51894 34.2742V34.3222C3.45682 34.4481 3.39321 34.5737 3.3296 34.6993H3.23511C3.17336 34.6213 3.12426 34.9045 3.14026 34.8889C3.23511 35.0152 3.3296 35.1401 3.42408 35.2657C3.4092 35.2988 3.39321 35.3296 3.37721 35.3605C3.53493 35.5188 3.69117 35.6745 3.84926 35.8332C3.81839 35.8796 3.78602 35.9283 3.75552 35.9747V36.1152H3.80165C3.84926 36.1319 3.89687 36.1468 3.94449 36.1635C4.35516 36.6054 4.7636 37.0446 5.17316 37.4857C5.26764 37.5801 5.36213 37.6756 5.45661 37.7697C5.40974 37.7856 5.36213 37.7998 5.31526 37.8165C5.33163 37.8481 5.34576 37.8804 5.36213 37.9105H5.31526C5.34762 37.9428 5.37887 37.9752 5.40974 38.0053H5.55147C6.21286 38.2884 6.87537 38.572 7.53713 38.8551C7.60074 38.8715 7.66249 38.886 7.7261 38.9023C7.8057 38.9826 7.88382 39.0607 7.96194 39.1391C8.30937 39.1238 8.65569 39.1082 9.00238 39.0908C9.08273 39.1082 9.16085 39.1223 9.24045 39.1376C10.0428 39.1877 10.5007 39.1602 11.0825 39.7054H11.6502C11.6822 39.7377 11.7134 39.769 11.7443 39.7998C12.3752 39.7522 13.0046 39.7054 13.6351 39.6582C13.6678 39.7054 13.6995 39.7522 13.73 39.7998C13.8244 39.7849 13.9193 39.769 14.0138 39.7522C14.0298 39.7849 14.0447 39.8158 14.061 39.8466C14.061 39.8767 15.1762 39.6582 15.3373 39.5642H15.5266C15.5899 39.439 15.652 39.3111 15.716 39.1855C15.8573 39.1718 15.9987 39.1547 16.1412 39.1391H16.1884C16.2516 39.0774 16.3138 39.0127 16.3774 38.9495C16.5191 38.9217 16.6608 38.8931 16.8026 38.8633C18.029 38.8061 19.8819 38.8076 20.8687 39.3275C20.9011 39.3435 20.932 39.3591 20.9628 39.375C21.1213 39.3605 21.2772 39.3435 21.4356 39.3275C21.516 39.3907 21.5937 39.4538 21.6722 39.517H21.9557C22.0349 39.439 22.1138 39.3591 22.1923 39.281C22.1923 40.0109 25.2559 38.9317 25.5015 38.8551C25.5487 38.8879 25.5963 38.918 25.6432 38.9495C25.6592 38.9362 25.6737 38.918 25.69 38.9023C25.959 38.8879 26.2261 38.8715 26.4943 38.8551C26.5103 38.8414 26.5248 38.8247 26.5412 38.8076C26.5266 38.8715 26.5103 38.9339 26.4943 38.9971C26.5266 39.0127 26.5568 39.0283 26.5891 39.0443C26.7156 38.918 26.8413 38.7916 26.9663 38.6667C27.3777 38.5248 27.7866 38.3825 28.1957 38.2412C28.243 38.2884 28.2906 38.336 28.3378 38.3825C28.4796 38.3215 28.6217 38.2576 28.7627 38.194V38.1468C28.7954 38.194 28.827 38.2412 28.8575 38.2884C28.9684 38.2271 29.0777 38.1632 29.1886 38.0993C29.2206 38.0521 29.2526 38.0053 29.2831 37.9581H29.3303C29.3463 37.9752 29.3615 37.9889 29.3779 38.0053C29.4571 38.0684 29.5356 38.1301 29.6141 38.194C29.6141 38.168 30.1137 37.7548 30.181 37.6277C30.1665 37.6125 30.1505 37.5961 30.1342 37.5801H30.181V37.6277C30.3748 37.6277 30.8197 37.1297 30.8908 36.9662V36.919C30.9696 36.8101 31.0481 36.6998 31.1266 36.5886H31.0798C31.143 36.5106 31.2059 36.4303 31.2683 36.3527C31.3632 36.2902 31.4577 36.2263 31.5522 36.1635H31.5994C31.7579 36.149 31.9137 36.1319 32.0722 36.1152V36.0212C32.1046 35.9747 32.1354 35.9283 32.1674 35.8796H32.0722V35.8332H32.0246V35.7856C32.0406 35.8016 32.0562 35.8164 32.0722 35.8332C32.1046 35.8187 32.1354 35.8016 32.1674 35.7856C32.0119 35.7856 32.5703 35.1115 32.6395 35.0297C32.6719 34.9989 32.7035 34.9669 32.734 34.9353C32.734 35.0082 33.1242 34.5321 33.1599 34.3222H33.2064C33.3649 34.2434 33.5211 34.1635 33.6796 34.0854C33.6654 34.0702 33.6483 34.0546 33.632 34.0382C33.6174 34.0074 33.6011 33.9747 33.5855 33.9438H33.5375V33.897C33.6319 33.771 33.7264 33.6439 33.8213 33.5183C33.8064 33.4403 33.7908 33.3604 33.7744 33.2824V33.3296C33.7588 33.3154 33.7428 33.2987 33.7264 33.2824C33.7908 33.2043 33.8525 33.1252 33.9161 33.0468H34.0575C34.3205 33.0468 34.7754 31.7346 34.8137 31.441H34.8614C34.8777 31.5673 34.8922 31.693 34.9086 31.8186H35.0035C35.3323 31.8186 35.3338 31.1277 35.3338 30.8743C35.3193 30.7643 35.3029 30.6532 35.2873 30.5428H35.2393V30.496H35.3338C35.3502 30.4811 35.3658 30.4659 35.3818 30.4495C35.3665 30.3548 35.3502 30.2604 35.3338 30.166C35.3502 30.0404 35.3502 29.8193 35.3338 29.8352H35.2873C35.2873 29.82 34.9722 29.7249 35.0979 29.694V29.1741C35.1452 29.1596 35.1924 29.1425 35.2393 29.1262C35.2557 28.8902 35.2709 28.6542 35.2873 28.4183C35.2557 28.3714 35.2233 28.3246 35.1924 28.2759C35.2248 28.1819 35.2557 28.0879 35.2873 27.9931C35.3029 27.7423 35.3182 27.4903 35.3338 27.2376C35.3193 27.254 35.3029 27.2685 35.2873 27.2841C35.2724 27.254 35.2557 27.2216 35.2393 27.1901C35.1779 27.1291 35.1143 27.0644 35.0507 27.0016C35.0979 26.9069 35.1452 26.8121 35.1924 26.7174C35.0771 26.7174 35.4108 26.2201 35.4766 26.1514V26.1993C35.5395 26.073 35.602 25.9459 35.6649 25.8199C35.6184 25.759 35.5707 25.695 35.5235 25.6311C35.5707 25.475 35.6184 25.3175 35.6649 25.1595V24.7344H35.5235V24.5924C35.509 24.562 35.4926 24.5296 35.4766 24.4984H35.4286V24.4512C35.445 24.4676 35.4595 24.4821 35.4766 24.4984C35.5235 24.404 35.5707 24.3093 35.6184 24.2145C35.634 24.2 35.6489 24.1837 35.6649 24.1673Z" fill="white"/>
<path d="M108.867 18.5843L95.6772 17.7998L89.1794 23.8286L85.4625 21.3183L91.8986 14.8191L95.1992 11.1226L84.9692 10.5808L84.3008 7.26853L87.6208 7.15444L102.015 7.46697L102.071 9.55695L97.7667 13.9621C97.7667 13.9621 101.705 14.7436 104.809 14.9008C107.914 15.058 110.053 15.1234 110.053 15.1234L108.867 18.5843Z" fill="white"/>
<path d="M95.8821 35.4701C95.9572 36.1353 101.44 34.8268 101.44 34.8268C101.44 34.8268 101.411 29.836 101.742 27.7601C101.742 27.7601 104.996 27.0912 110.92 25.6434L111.408 23.0651C111.408 23.0651 94.1174 23.9299 85.6994 25.245L84.9691 28.2313L97.2677 27.7088C97.2677 27.7088 96.6078 30.826 96.497 32.0902C96.295 34.3931 95.8724 35.3854 95.8821 35.4701Z" fill="white"/>
<path d="M69.8444 33.248C69.7711 33.2409 69.7197 32.986 69.7376 32.9042C70.0847 31.4211 73.7015 29.1011 73.7015 29.1011C74.7624 29.3664 75.2039 30.9562 75.2039 30.9562C74.9387 31.31 72.8415 33.5315 69.8444 33.248ZM79.6112 29.4645L77.4857 27.2032V6.97791L72.0026 7.25403L72.5242 15.9332L70.0002 16.4902L63.0102 19.0217L59.9443 20.1655L59.1676 19.3896L61.375 17.1432L64.5782 13.3359C64.5782 13.3359 64.8304 10.082 64.6741 9.87802L60.775 9.93785L60.4763 2.44157L55.3663 2.76822C55.3663 2.76822 55.3112 6.32498 56.9651 10.4395L44.8443 11.5968C44.5103 12.6585 45.9506 15.8979 45.9506 15.8979L57.9754 14.2921L50.2972 22.82L46.7403 26.7402L46.1842 27.2281L49.3156 30.2932L56.0199 22.2481C56.0199 22.2481 58.9727 28.5195 58.6368 30.4973L61.1298 31.3141L62.1889 25.9862L67.8174 22.1552L72.9612 18.5107L73.3935 25.9836C71.4841 26.8405 66.768 28.9773 65.6677 29.6711C65.6677 29.6711 63.425 34.2718 64.2095 36.0853C64.2095 36.0853 73.3481 39.6799 81.0054 33.1822C81.0054 33.1822 80.6349 30.9818 79.6112 29.4645Z" fill="white"/>
<path d="M167.338 36.8978L162.608 37.6291L162.901 34.373L163.448 31.0641L148.999 32.0667L149.073 28.7593L155.583 27.8678L156.215 24.0769L145.576 24.7462V20.8442L158.075 20.5094L170.946 20.1378L171.243 23.0368L161.506 24.0606C161.506 24.0606 160.48 27.7069 160.456 27.756L168.491 27.8303L167.338 36.8978Z" fill="white"/>
<path d="M163.446 11.2039L162.415 11.0456L155.428 11.7178L153.937 11.9805L153.147 12.1559L153.399 15.9479L162.844 14.6458L162.925 14.2459L163.446 11.2039ZM159.162 17.9844L149.171 19.0116L148.864 16.0535L148.281 11.309L147.582 3.89859L152.488 3.2386L152.723 6.93323L152.96 9.49293L163.581 7.28738L164.105 2.63286L169.238 3.34526L168.258 10.9831L167.477 17.1858L159.162 17.9844Z" fill="white"/>
<path d="M126.14 35.1856C126.14 33.9871 129.096 31.3316 129.096 31.3316C130.055 31.472 130.491 34.0804 130.491 34.0804C128.05 36.548 126.14 35.1856 126.14 35.1856ZM131.363 29.3575C131.363 29.3575 130.841 29.1316 130.176 28.8978C130.209 28.8949 130.227 28.8934 130.227 28.8934L132.376 24.7194L142.6 23.9044L142.224 20.3268L134.124 20.9147L121.85 21.8925L125.516 18.1384C125.516 18.1384 131.566 17.9462 133.76 17.7445C136.552 17.488 138.621 17.2461 138.621 17.2461L139.114 14.2602C139.114 14.2602 135.25 14.4222 133.08 14.6392C130.91 14.8559 128.557 14.5288 128.557 14.5288L134.136 10.3496L134.165 7.75238L127.904 7.5885L130.728 2.64264L124.385 1.74258C124.385 1.74258 123.907 3.14952 124.046 7.46958L114.77 8.56994L115.457 11.5128L120.253 11.431L125.572 11.4719L116.939 20.2202L119.443 22.2414L115.261 22.4302L114.996 25.6562L127.057 25.1352C127.057 25.1352 125.969 28.7611 125.578 29.3884C123.482 30.7946 120.986 33.5821 120.746 36.0069C120.746 36.0069 120.188 38.344 124.041 38.6621C124.041 38.6621 129.771 39.4365 130.294 39.2258C130.294 39.2258 134.239 37.118 134.849 36.5543C134.849 36.5543 135.111 31.1201 131.363 29.3575Z" fill="white"/>
<path d="M181.975 21.3177C181.464 18.201 186.059 15.0842 186.059 15.0842C188.158 19.9015 181.975 21.3177 181.975 21.3177ZM199.163 23.3583C198.652 22.9045 190.2 25.3977 190.2 25.3977L190.03 19.2779C191.108 18.0304 190.427 13.8939 190.427 13.8939L188.329 13.8371C187.478 13.8371 187.704 13.6672 187.704 13.4405C187.704 13.2139 194.398 9.02015 194.398 9.02015C195.079 7.43371 194.341 7.03682 194.341 7.03682C193.774 7.49057 189.349 7.43371 189.349 7.43371L188.669 0.0660076L183.053 0.00952148C183.166 3.0698 185.492 7.71651 185.492 7.71651C184.982 8.34008 173.182 10.607 173.182 10.607C173.069 12.817 174.544 13.5539 174.544 13.5539C183.904 11.4572 184.244 12.1938 184.244 12.1938C181.238 14.5175 176.983 21.1475 176.983 21.3746C176.983 21.8967 180.216 25.3977 180.216 25.3977C180.216 25.3977 181.861 25.0581 182.485 24.8879C183.11 24.718 187.137 21.4879 187.137 21.4879L186.57 26.361C177.21 30.8947 176.813 31.325 176.813 31.325C177.323 32.0854 178.968 34.4083 178.968 34.4083C185.151 32.7082 193.49 29.0819 193.49 29.0819C196.213 28.4584 199.163 23.3583 199.163 23.3583Z" fill="white"/>
<path d="M199.106 30.4419C198.936 30.4419 198.595 27.4381 211.075 21.7717C211.075 21.7717 210.962 18.3707 211.246 18.2577L203.588 18.2012C203.588 18.2012 203.417 6.46997 204.268 5.50674C204.268 5.50674 200.127 5.78991 199.9 5.62008L198.482 21.5443L203.304 21.7149C203.304 21.7149 196.383 26.3051 195.249 31.3483L194.058 37.299C194.058 37.299 210.11 30.7255 211.699 29.3081L211.529 25.9651C211.529 25.9651 199.276 30.4419 199.106 30.4419Z" fill="white"/>
<path d="M208.863 6.75349C208.863 6.75349 208.976 10.2103 210.111 10.6068L216.602 11.4002C216.602 11.4002 216.011 26.1917 214.877 28.0048L220.606 27.6083C220.606 27.6083 220.492 9.36039 221.74 6.35698C221.74 6.35698 210.452 7.15001 208.863 6.75349Z" fill="white"/>
<path d="M225.144 12.5905C225.144 12.5905 232.915 12.194 233.142 12.0807C233.369 11.967 235.582 7.88697 235.582 7.88697C235.582 7.88697 225.201 8.17014 224.974 8.05717C224.974 8.05717 225.371 11.7968 225.144 12.5905Z" fill="white"/>
<path d="M233.519 29.3224C233.448 29.3142 233.536 29.1745 233.554 29.0942C233.897 27.6304 236.483 24.9685 236.483 24.9685C237.529 25.2294 237.964 26.7969 237.964 26.7969C237.703 27.1455 234.914 29.4967 233.519 29.3224ZM240.176 22.6782C240.176 22.6782 239.268 8.56642 240.176 6.01675C240.176 6.01675 237.568 5.78969 236.943 7.77339C236.943 7.77339 236.659 18.201 221.967 18.2578L222.024 22.5073C222.024 22.5073 228.264 23.0183 235.752 16.444C235.752 16.444 236.206 19.9576 235.695 21.7146C235.695 21.7146 230.59 26.701 229.682 27.8913C229.682 27.8913 229.228 32.5384 230.476 33.8417C230.476 33.8417 239.439 34.0126 243.92 26.0213C243.92 26.0213 242.161 22.9614 240.176 22.6782Z" fill="white"/>
<path d="M254.525 5.20248C256.443 4.85427 258.448 6.85692 258.448 6.85692C254.613 11.3855 250.168 10.6013 250.168 10.6013C251.301 8.0762 254.525 5.20248 254.525 5.20248ZM247.378 14.8679C247.378 15.6516 259.93 12.7787 262.632 7.2055C262.632 7.2055 262.98 4.87768 261.76 3.39753C261.76 3.39753 256.792 2.50304 249.66 3.98357L245.461 8.59907C245.461 8.59907 247.1 13.2881 247.348 14.6148C247.368 14.7233 247.378 14.8088 247.378 14.8679Z" fill="white"/>
<path d="M252.434 30.5418C252.434 30.5418 253.044 26.8847 255.484 25.6654C255.484 25.6654 255.817 26.9267 255.959 27.5945C255.98 27.6919 255.996 27.7762 256.007 27.842C256.095 28.3649 260.366 27.2333 260.366 27.2333C260.366 27.2333 259.756 21.8344 259.93 20.18C259.93 20.18 262.457 19.2216 267.077 17.8287L267.338 15.4775C267.338 15.4775 254.264 16.1743 247.117 18.2795L246.681 20.9637H256.792L256.966 21.7467C256.966 21.7467 255.746 24.7081 255.048 24.8824C254.351 25.0563 250.357 24.8824 250.357 24.8824C250.357 24.8824 247.125 30.0193 246.776 36.1146C246.776 36.1146 257.837 35.5048 261.76 33.5025L269.169 28.9743V26.5365C269.169 26.5365 256.094 30.8023 252.434 30.5418Z" fill="white"/>
<path d="M281.982 35.3315C281.982 33.8513 284.422 30.4547 284.422 30.4547C285.381 30.6283 285.816 33.8509 285.816 33.8509C283.376 36.8986 281.982 35.3315 281.982 35.3315ZM292.79 23.663L292.703 21.7466L283.638 21.8414C283.638 21.8414 284.596 21.5734 284.771 20.0059L284.335 16.5224C284.335 16.5224 289.13 15.3904 291.918 13.9972V11.6464C291.918 11.6464 277.362 12.2558 275.009 14.1871V9.2082C275.009 9.2082 286.776 6.68268 290.959 6.59572L291.134 3.11292C291.134 3.11292 272.83 4.24487 271.087 5.55073L270.651 18.1768C270.651 18.1768 278.146 17.9156 280.064 16.8706C280.064 16.8706 279.803 21.8347 279.106 22.4434L272.568 24.5337L272.481 27.8422C272.481 27.8422 280.151 25.6653 283.202 25.8396C283.202 25.8396 283.551 26.3621 283.289 26.4494C283.028 26.5364 277.537 34.0241 276.665 36.0275C276.665 36.0275 274.486 38.9009 279.367 39.5107C279.367 39.5107 285.096 40.4676 285.619 40.2071C285.619 40.2071 289.564 37.6028 290.174 36.906C290.174 36.906 290.437 30.1935 286.689 28.0162C286.689 28.0162 289.564 24.0112 292.79 23.663Z" fill="white"/>
<path d="M300.547 20.9635C298.63 18.9605 301.506 13.649 301.506 13.649C302.9 21.5734 300.547 20.9635 300.547 20.9635ZM330.357 25.317C330.357 25.317 319.113 29.8448 316.237 29.584C316.237 29.584 322.163 23.5756 325.65 22.4433C325.65 22.4433 325.563 8.77298 325.999 7.29245L325.04 7.11816C325.04 7.11816 320.42 16.0872 305.515 18.525V15.1291C305.515 15.1291 315.103 13.562 317.892 12.0819C317.892 12.0819 317.718 9.03422 318.067 8.42477C318.067 8.42477 309.612 9.81797 308.828 9.81797L306.649 10.3401C306.649 10.3401 305.199 11.6582 305.167 11.7333L304.295 11.8202C304.295 11.8202 304.382 9.90455 303.51 7.90228L299.239 9.55672C299.239 9.55672 296.799 16.348 296.625 19.1348C296.625 19.1348 297.75 25.0632 297.402 25.5857L303.336 24.8822C303.336 24.8822 304.905 22.6176 305.254 19.7443C305.254 19.7443 306.126 19.1348 307.607 23.4017C307.607 23.4017 314.754 21.9208 321.204 15.1291L321.118 21.3991C321.118 21.3991 309.264 28.1034 308.828 34.3726C308.828 34.3726 312.227 34.7216 322.337 32.8928C322.337 32.8928 327.829 31.8475 330.705 29.4966C330.705 29.4966 330.182 26.449 330.357 25.317Z" fill="white"/>
<path d="M336.371 10.3402L337.069 3.89631L333.582 3.98365L333.93 10.3402H336.371Z" fill="white"/>
<path d="M337.156 22.5313C336.807 22.1831 338.463 20.18 338.463 20.18C339.073 22.7918 337.156 22.5313 337.156 22.5313ZM343.519 22.6175C343.519 22.6175 342.909 18.0897 340.729 17.4806C340.729 17.4806 339.247 18.1767 344.564 12.9525L344.913 10.6886L329.572 12.9525L329.921 16.4356L337.678 14.433L337.591 15.4776C337.591 15.4776 333.495 22.5313 332.449 23.3143C332.449 23.3143 333.058 25.8394 334.192 26.275C334.192 26.275 337.156 26.3623 339.422 25.1426C339.422 25.1426 342.909 23.5766 343.519 22.6175Z" fill="white"/>
<path d="M352.409 31.7611C351.363 33.1532 345.262 33.2409 345.262 33.2409L345.611 30.3676L352.67 29.9324L352.409 31.7611ZM354.152 19.6575C353.803 19.8314 352.845 26.4492 352.845 26.4492L345.785 27.4938C345.785 26.2749 347.179 24.7944 347.179 24.7944C354.762 16.4356 363.13 16.1743 363.13 16.1743L362.433 13.388C357.464 14.4329 349.358 12.0817 349.358 12.0817C349.358 7.46659 351.973 3.46129 351.973 3.46129C351.189 3.37396 346.656 3.80912 346.047 3.80912L345.785 13.6492L351.03 18.5252C347.718 20.3543 342.037 27.3195 342.037 27.3195C341.339 30.7158 340.294 37.7687 340.294 37.7687C340.642 37.4209 357.551 34.8088 357.551 34.8088C357.203 30.8031 358.772 19.3089 358.772 19.3089L354.152 19.6575Z" fill="white"/>
</svg>
